<?xml version="1.0" standalone="no"?>
<!DOCTYPE svg PUBLIC "-//W3C//DTD SVG 20010904//EN"
 "http://www.w3.org/TR/2001/REC-SVG-20010904/DTD/svg10.dtd">
<svg version="1.0" xmlns="http://www.w3.org/2000/svg"
 width="512.000000pt" height="512.000000pt" viewBox="0 0 512.000000 512.000000"
 preserveAspectRatio="xMidYMid meet">

<g transform="translate(0.000000,512.000000) scale(0.100000,-0.100000)"
fill="#000000" stroke="none">
<path d="M3432 5014 c-124 -62 -184 -249 -133 -414 23 -75 62 -133 107 -161
l34 -21 0 -89 0 -89 -135 0 c-131 0 -137 -1 -160 -25 -24 -23 -25 -29 -25
-160 l0 -135 -55 0 c-46 0 -60 -4 -80 -25 l-25 -24 0 -1016 0 -1015 -400 0
-400 0 0 415 0 416 -25 24 c-20 21 -34 25 -80 25 l-55 0 0 135 c0 131 -1 137
-25 160 l-24 25 -751 0 -751 0 -24 -25 c-24 -23 -25 -29 -25 -160 l0 -135 -55
0 c-46 0 -60 -4 -80 -25 l-25 -24 0 -1216 0 -1215 -80 0 -80 0 0 -80 0 -80
2480 0 2480 0 0 80 0 80 -80 0 -80 0 0 1815 0 1816 -25 24 c-20 21 -34 25 -80
25 l-55 0 0 135 c0 131 -1 137 -25 160 -23 24 -29 25 -160 25 l-135 0 0 89 0
89 34 21 c70 44 126 168 126 281 0 74 -31 173 -70 227 -36 49 -117 93 -170 93
-53 0 -134 -44 -170 -93 -39 -54 -70 -153 -70 -227 0 -113 56 -237 126 -281
l34 -21 0 -89 0 -89 -320 0 -320 0 0 89 0 89 34 21 c70 44 126 168 126 281 0
74 -31 173 -70 227 -36 49 -117 93 -170 93 -20 0 -59 -12 -88 -26z m131 -175
c55 -75 30 -254 -37 -267 -43 -9 -79 59 -79 148 0 123 64 188 116 119z m800 0
c55 -75 30 -254 -37 -267 -43 -9 -79 59 -79 148 0 123 64 188 116 119z m197
-839 l0 -80 -640 0 -640 0 0 80 0 80 640 0 640 0 0 -80z m160 -2000 l0 -1760
-160 0 -160 0 0 217 c0 209 -1 218 -22 240 l-21 23 -436 0 c-433 0 -435 0
-458 -22 -23 -21 -23 -25 -23 -240 l0 -218 -160 0 -160 0 0 1760 0 1760 800 0
800 0 0 -1760z m-2880 800 l0 -80 -640 0 -640 0 0 80 0 80 640 0 640 0 0 -80z
m160 -1400 l0 -1160 -800 0 -800 0 0 1160 0 1160 800 0 800 0 0 -1160z m2240
-1000 l0 -160 -320 0 -320 0 0 160 0 160 320 0 320 0 0 -160z"/>
<path d="M3280 3520 l0 -80 640 0 640 0 0 80 0 80 -640 0 -640 0 0 -80z"/>
<path d="M3302 3257 c-21 -22 -22 -32 -22 -218 0 -258 -20 -239 241 -239 258
0 239 -20 239 241 0 258 20 239 -241 239 -191 0 -196 0 -217 -23z m298 -217
l0 -80 -80 0 -80 0 0 80 0 80 80 0 80 0 0 -80z"/>
<path d="M4102 3257 c-21 -22 -22 -32 -22 -218 0 -258 -20 -239 241 -239 258
0 239 -20 239 241 0 258 20 239 -241 239 -191 0 -196 0 -217 -23z m298 -217
l0 -80 -80 0 -80 0 0 80 0 80 80 0 80 0 0 -80z"/>
<path d="M3302 2617 c-21 -22 -22 -32 -22 -218 0 -258 -20 -239 241 -239 258
0 239 -20 239 241 0 258 20 239 -241 239 -191 0 -196 0 -217 -23z m298 -217
l0 -80 -80 0 -80 0 0 80 0 80 80 0 80 0 0 -80z"/>
<path d="M4102 2617 c-21 -22 -22 -32 -22 -218 0 -258 -20 -239 241 -239 258
0 239 -20 239 241 0 258 20 239 -241 239 -191 0 -196 0 -217 -23z m298 -217
l0 -80 -80 0 -80 0 0 80 0 80 80 0 80 0 0 -80z"/>
<path d="M3302 1977 c-21 -22 -22 -32 -22 -218 0 -258 -20 -239 241 -239 258
0 239 -20 239 241 0 258 20 239 -241 239 -191 0 -196 0 -217 -23z m298 -217
l0 -80 -80 0 -80 0 0 80 0 80 80 0 80 0 0 -80z"/>
<path d="M4102 1977 c-21 -22 -22 -32 -22 -218 0 -258 -20 -239 241 -239 258
0 239 -20 239 241 0 258 20 239 -241 239 -191 0 -196 0 -217 -23z m298 -217
l0 -80 -80 0 -80 0 0 80 0 80 80 0 80 0 0 -80z"/>
<path d="M3302 1337 c-21 -22 -22 -32 -22 -218 0 -258 -20 -239 241 -239 258
0 239 -20 239 241 0 258 20 239 -241 239 -191 0 -196 0 -217 -23z m298 -217
l0 -80 -80 0 -80 0 0 80 0 80 80 0 80 0 0 -80z"/>
<path d="M4102 1337 c-21 -22 -22 -32 -22 -218 0 -258 -20 -239 241 -239 258
0 239 -20 239 241 0 258 20 239 -241 239 -191 0 -196 0 -217 -23z m298 -217
l0 -80 -80 0 -80 0 0 80 0 80 80 0 80 0 0 -80z"/>
<path d="M582 2377 c-21 -22 -22 -32 -22 -218 0 -258 -20 -239 241 -239 258 0
239 -20 239 241 0 258 20 239 -241 239 -191 0 -196 0 -217 -23z m298 -217 l0
-80 -80 0 -80 0 0 80 0 80 80 0 80 0 0 -80z"/>
<path d="M1382 2377 c-21 -22 -22 -32 -22 -218 0 -258 -20 -239 241 -239 258
0 239 -20 239 241 0 258 20 239 -241 239 -191 0 -196 0 -217 -23z m298 -217
l0 -80 -80 0 -80 0 0 80 0 80 80 0 80 0 0 -80z"/>
<path d="M582 1737 c-21 -22 -22 -32 -22 -218 0 -258 -20 -239 241 -239 258 0
239 -20 239 241 0 258 20 239 -241 239 -191 0 -196 0 -217 -23z m298 -217 l0
-80 -80 0 -80 0 0 80 0 80 80 0 80 0 0 -80z"/>
<path d="M1382 1737 c-21 -22 -22 -32 -22 -218 0 -258 -20 -239 241 -239 258
0 239 -20 239 241 0 258 20 239 -241 239 -191 0 -196 0 -217 -23z m298 -217
l0 -80 -80 0 -80 0 0 80 0 80 80 0 80 0 0 -80z"/>
<path d="M582 1097 c-21 -22 -22 -32 -22 -218 0 -258 -20 -239 241 -239 258 0
239 -20 239 241 0 258 20 239 -241 239 -191 0 -196 0 -217 -23z m298 -217 l0
-80 -80 0 -80 0 0 80 0 80 80 0 80 0 0 -80z"/>
<path d="M1382 1097 c-21 -22 -22 -32 -22 -218 0 -258 -20 -239 241 -239 258
0 239 -20 239 241 0 258 20 239 -241 239 -191 0 -196 0 -217 -23z m298 -217
l0 -80 -80 0 -80 0 0 80 0 80 80 0 80 0 0 -80z"/>
</g>
</svg>
